<svg version="1.1" id="Layer_1" xmlns:x="ns_extend;" xmlns:i="ns_ai;" xmlns:graph="ns_graphs;" xmlns="http://www.w3.org/2000/svg" xmlns:xlink="http://www.w3.org/1999/xlink" x="0px" y="0px" viewBox="0 0 67.7 86.2" style="enable-background:new 0 0 67.7 86.2;" xml:space="preserve">
 <style type="text/css">
  .st0{fill:#360D3A;}
 </style>
 <metadata>
  <sfw xmlns="ns_sfw;">
   <slices>
   </slices>
   <sliceSourceBounds bottomLeftOrigin="true" height="86.2" width="67.7" x="-315.5" y="-309.5">
   </sliceSourceBounds>
  </sfw>
 </metadata>
 <g>
  <path class="st0" d="M13.4,7.1c3.8,1.8,6.3,4,6.7,4.3c-0.2-1-0.9-5.7-1.4-8.6c2.2,1.5,7.4,5.1,9.1,6.3C28.4,7,30.9,0,30.9,0
		s4.3,7,5,8.1C36.8,7.2,42,1.4,43.3,0c0.3,3.3,0.5,8.1,0.6,8.7c0.3-0.3,2.3-3.1,5.6-5.7C48,5.8,47.4,9.7,47,12.9
		c-3.3-0.9-6.7-1.4-10.2-1.4c-6.8,0-13.2,1.8-18.8,5C17,13.4,15.5,9.6,13.4,7.1z M65.6,66.9l-3-3.3c-0.8,9-5.3,16.6-13.4,22L48,80.7
		c-6.9,5-18.6,8.1-28.8,2.4c1.3-6.4,2.3-12.9,0-20.7C13.6,71.1,8.6,74.5,8.6,74.5c-3.8-6.4-3.5-19.1-2.3-22.9L0,53.5
		c0-4.3,3.1-13.4,7.6-18.5l-3.8-0.6c2.7-5.5,6.6-10.1,11.6-13.7c-1.5,2.4-1.5,8.1,2.8,10.3c-1.8-3.2-2-7.1-0.2-9.2
		c1.9-2.1,5.1-1.3,7.1,0.3c-0.6-1.8-2.4-4-5-4.2c5-2.6,10.9-4,16.9-4c1.2,0,2.3,0.1,3.3,0.2c1.8,0.7,4.3,3.2,5.6,4.8
		c0,0,0.1-1.8-0.9-4c6.6,1.6,9.7,4.3,11,5.6c0.3,2.8,1.1,4.5,2.3,7.2c-2.1-2.3-7.5-6.2-10.1-7.1c0,0-0.3,2.4-1.1,3.6
		c-5.1-3.7-7.6-4.6-7.6-4.6c-5.7,0.6-9.2,2.8-11.2,4.5l1.7,1.4c-3.3,1-5.6,4-5.6,4c0,0.1,3,0.5,3,0.5s-0.3,3.5,4.1,5.7
		c3.8,1.8,9.1-0.4,14.2,1.6c-3.3-3.8-5.6-5.6-5.6-5.6s-1.3-0.3-2.3-0.3c-1.2,0-2.9,0.3-4.8-0.5c-0.9-0.3-2-1-2.8-1.5
		c0,0,2.3-2.4,5.8-2.9c0,0,3.1,0.8,5.6,2.7c1.6-1.6,3.3-1.5,3.3-1.5s-1.7,1.6-1.2,3.5c2.4,2.2,5.1,5.3,5.1,5.3
		c2.7-1.5,8.6-1.2,9.8,0.3c-1.5-2-3.8-3.6-5.5-5c-0.2-0.8-2.1-3.3-2.3-3.6c0,0,1.8,0.6,3.3,1.9c0.4-0.7,1.3-1.3,2.4-1.6
		c1.2,1,1.4,2.5,1.3,2.8c-0.5,0.7-1.1,0.9-1.1,0.9l2.8,3.1l0.3-2.3C66.6,42.2,70.2,53.1,65.6,66.9z M53.1,46.6v-4.8
		c0,0-2.2-0.7-4.5-2.5c-4.7,0.7-10.3,5.4-10.3,5.4s1.9,3.6,4,7.6C46,52.6,51.5,48,53.1,46.6z M57.8,55.4c0,0-0.3-2-2-3.8l-3.6,0.1
		c0,0-5,4.2-7.9,4.3c0,0,1.7,3.1,2.5,4.7c1.7-0.3,4.5-1.7,5.7-3c0,0,0.8,2.5,0.6,5.5C54.8,62,57.1,59.4,57.8,55.4z M59.3,39.3
		c-1.8,1.5-3.3,2.4-3.3,2.4v4.8c1.3,1.4,2.6,2.7,3.6,4.8C61.4,48.2,61,43.4,59.3,39.3z">
  </path>
 </g>
</svg>